<mxfile host="drawio-plugin" modified="2024-03-21T12:10:04.784Z" agent="5.0 (Macintosh; Intel Mac OS X 10_15_7) AppleWebKit/537.36 (KHTML, like Gecko) Chrome/111.0.0.0 Safari/537.36" etag="ZvoId-oczbFTLbcDdqLv" version="20.5.3" type="embed"><diagram name="Page-1" id="e7e014a7-5840-1c2e-5031-d8a46d1fe8dd"><mxGraphModel dx="528" dy="693" grid="1" gridSize="10" guides="1" tooltips="1" connect="1" arrows="1" fold="1" page="1" pageScale="1" pageWidth="1169" pageHeight="826" background="none" math="0" shadow="0"><root><mxCell id="0"/><mxCell id="1" parent="0"/><mxCell id="7HPcLOjqXyRLx15dJzNg-41" value="Item" style="swimlane;fontStyle=1;align=center;verticalAlign=top;childLayout=stackLayout;horizontal=1;startSize=26;horizontalStack=0;resizeParent=1;resizeParentMax=0;resizeLast=0;collapsible=1;marginBottom=0;whiteSpace=wrap;html=1;" parent="1" vertex="1"><mxGeometry x="80" y="80" width="240" height="390" as="geometry"/></mxCell><mxCell id="7HPcLOjqXyRLx15dJzNg-42" value="&lt;div&gt;itemId: long&lt;/div&gt;&lt;div&gt;itemName: String&lt;/div&gt;&lt;div&gt;price: float&lt;/div&gt;&lt;div&gt;numberOfShots: int&lt;/div&gt;&lt;div&gt;sugar: Sugar&lt;/div&gt;&lt;div&gt;milk: Milk&lt;/div&gt;&lt;div&gt;extras: String&lt;/div&gt;&lt;div&gt;description: String&lt;/div&gt;" style="text;strokeColor=none;fillColor=none;align=left;verticalAlign=top;spacingLeft=4;spacingRight=4;overflow=hidden;rotatable=0;points=[[0,0.5],[1,0.5]];portConstraint=eastwest;whiteSpace=wrap;html=1;" parent="7HPcLOjqXyRLx15dJzNg-41" vertex="1"><mxGeometry y="26" width="240" height="134" as="geometry"/></mxCell><mxCell id="7HPcLOjqXyRLx15dJzNg-43" value="" style="line;strokeWidth=1;fillColor=none;align=left;verticalAlign=middle;spacingTop=-1;spacingLeft=3;spacingRight=3;rotatable=0;labelPosition=right;points=[];portConstraint=eastwest;strokeColor=inherit;" parent="7HPcLOjqXyRLx15dJzNg-41" vertex="1"><mxGeometry y="160" width="240" height="8" as="geometry"/></mxCell><mxCell id="7HPcLOjqXyRLx15dJzNg-44" value="getter and setters&lt;br&gt;constructors" style="text;strokeColor=none;fillColor=none;align=left;verticalAlign=top;spacingLeft=4;spacingRight=4;overflow=hidden;rotatable=0;points=[[0,0.5],[1,0.5]];portConstraint=eastwest;whiteSpace=wrap;html=1;" parent="7HPcLOjqXyRLx15dJzNg-41" vertex="1"><mxGeometry y="168" width="240" height="222" as="geometry"/></mxCell><mxCell id="7HPcLOjqXyRLx15dJzNg-45" value="Customer (Record)" style="swimlane;fontStyle=1;align=center;verticalAlign=top;childLayout=stackLayout;horizontal=1;startSize=26;horizontalStack=0;resizeParent=1;resizeParentMax=0;resizeLast=0;collapsible=1;marginBottom=0;whiteSpace=wrap;html=1;" parent="1" vertex="1"><mxGeometry x="350" y="80" width="160" height="200" as="geometry"/></mxCell><mxCell id="7HPcLOjqXyRLx15dJzNg-46" value="name: String&lt;div&gt;phoneNumber: long&lt;/div&gt;&lt;div&gt;&lt;br&gt;&lt;div&gt;&lt;br&gt;&lt;/div&gt;&lt;/div&gt;" style="text;strokeColor=none;fillColor=none;align=left;verticalAlign=top;spacingLeft=4;spacingRight=4;overflow=hidden;rotatable=0;points=[[0,0.5],[1,0.5]];portConstraint=eastwest;whiteSpace=wrap;html=1;" parent="7HPcLOjqXyRLx15dJzNg-45" vertex="1"><mxGeometry y="26" width="160" height="74" as="geometry"/></mxCell><mxCell id="7HPcLOjqXyRLx15dJzNg-47" value="" style="line;strokeWidth=1;fillColor=none;align=left;verticalAlign=middle;spacingTop=-1;spacingLeft=3;spacingRight=3;rotatable=0;labelPosition=right;points=[];portConstraint=eastwest;strokeColor=inherit;" parent="7HPcLOjqXyRLx15dJzNg-45" vertex="1"><mxGeometry y="100" width="160" height="8" as="geometry"/></mxCell><mxCell id="7HPcLOjqXyRLx15dJzNg-48" value="getName(): String&lt;div&gt;getPhoneNumber(): long&lt;/div&gt;&lt;div&gt;&lt;br&gt;&lt;/div&gt;" style="text;strokeColor=none;fillColor=none;align=left;verticalAlign=top;spacingLeft=4;spacingRight=4;overflow=hidden;rotatable=0;points=[[0,0.5],[1,0.5]];portConstraint=eastwest;whiteSpace=wrap;html=1;" parent="7HPcLOjqXyRLx15dJzNg-45" vertex="1"><mxGeometry y="108" width="160" height="92" as="geometry"/></mxCell><mxCell id="7HPcLOjqXyRLx15dJzNg-49" value="FindAnItem" style="swimlane;fontStyle=1;align=center;verticalAlign=top;childLayout=stackLayout;horizontal=1;startSize=26;horizontalStack=0;resizeParent=1;resizeParentMax=0;resizeLast=0;collapsible=1;marginBottom=0;whiteSpace=wrap;html=1;" parent="1" vertex="1"><mxGeometry x="350" y="330" width="290" height="230" as="geometry"/></mxCell><mxCell id="7HPcLOjqXyRLx15dJzNg-50" value="filePath: String" style="text;strokeColor=none;fillColor=none;align=left;verticalAlign=top;spacingLeft=4;spacingRight=4;overflow=hidden;rotatable=0;points=[[0,0.5],[1,0.5]];portConstraint=eastwest;whiteSpace=wrap;html=1;" parent="7HPcLOjqXyRLx15dJzNg-49" vertex="1"><mxGeometry y="26" width="290" height="74" as="geometry"/></mxCell><mxCell id="7HPcLOjqXyRLx15dJzNg-51" value="" style="line;strokeWidth=1;fillColor=none;align=left;verticalAlign=middle;spacingTop=-1;spacingLeft=3;spacingRight=3;rotatable=0;labelPosition=right;points=[];portConstraint=eastwest;strokeColor=inherit;" parent="7HPcLOjqXyRLx15dJzNg-49" vertex="1"><mxGeometry y="100" width="290" height="8" as="geometry"/></mxCell><mxCell id="7HPcLOjqXyRLx15dJzNg-52" value="main()&lt;br&gt;loadItems(): AllItems&lt;br&gt;getCustomerCriteria(): Item&lt;br&gt;getCustomerDetails(): Customer&lt;br&gt;writeOrderToFile(Customer, Item)" style="text;strokeColor=none;fillColor=none;align=left;verticalAlign=top;spacingLeft=4;spacingRight=4;overflow=hidden;rotatable=0;points=[[0,0.5],[1,0.5]];portConstraint=eastwest;whiteSpace=wrap;html=1;" parent="7HPcLOjqXyRLx15dJzNg-49" vertex="1"><mxGeometry y="108" width="290" height="122" as="geometry"/></mxCell><mxCell id="7HPcLOjqXyRLx15dJzNg-54" value="AllItems" style="swimlane;fontStyle=1;align=center;verticalAlign=top;childLayout=stackLayout;horizontal=1;startSize=26;horizontalStack=0;resizeParent=1;resizeParentMax=0;resizeLast=0;collapsible=1;marginBottom=0;whiteSpace=wrap;html=1;" parent="1" vertex="1"><mxGeometry x="560" y="80" width="220" height="180" as="geometry"/></mxCell><mxCell id="7HPcLOjqXyRLx15dJzNg-55" value="&lt;div&gt;&lt;div&gt;allItems: ArrayList&amp;lt;Item&amp;gt;&lt;/div&gt;&lt;/div&gt;" style="text;strokeColor=none;fillColor=none;align=left;verticalAlign=top;spacingLeft=4;spacingRight=4;overflow=hidden;rotatable=0;points=[[0,0.5],[1,0.5]];portConstraint=eastwest;whiteSpace=wrap;html=1;" parent="7HPcLOjqXyRLx15dJzNg-54" vertex="1"><mxGeometry y="26" width="220" height="84" as="geometry"/></mxCell><mxCell id="7HPcLOjqXyRLx15dJzNg-56" value="" style="line;strokeWidth=1;fillColor=none;align=left;verticalAlign=middle;spacingTop=-1;spacingLeft=3;spacingRight=3;rotatable=0;labelPosition=right;points=[];portConstraint=eastwest;strokeColor=inherit;" parent="7HPcLOjqXyRLx15dJzNg-54" vertex="1"><mxGeometry y="110" width="220" height="10" as="geometry"/></mxCell><mxCell id="5" value="addItem(Item)" style="text;html=1;align=center;verticalAlign=middle;resizable=0;points=[];autosize=1;strokeColor=none;fillColor=none;" parent="7HPcLOjqXyRLx15dJzNg-54" vertex="1"><mxGeometry y="120" width="220" height="30" as="geometry"/></mxCell><mxCell id="3" value="findMatch(Item): ArrayList&amp;lt;Item&amp;gt;" style="text;html=1;align=center;verticalAlign=middle;resizable=0;points=[];autosize=1;strokeColor=none;fillColor=none;" parent="7HPcLOjqXyRLx15dJzNg-54" vertex="1"><mxGeometry y="150" width="220" height="30" as="geometry"/></mxCell></root></mxGraphModel></diagram></mxfile>